<svg xmlns="http://www.w3.org/2000/svg" viewBox="0 0 1200 630">
  <defs>
    <linearGradient id="bg" x1="0" y1="0" x2="1200" y2="630" gradientUnits="userSpaceOnUse">
      <stop offset="0%" stop-color="#312E81"/>
      <stop offset="50%" stop-color="#4338CA"/>
      <stop offset="100%" stop-color="#6366F1"/>
    </linearGradient>
  </defs>
  <rect width="1200" height="630" fill="url(#bg)"/>
  <!-- Decorative dots -->
  <circle cx="100" cy="80" r="40" fill="#A5B4FC" opacity="0.15"/>
  <circle cx="1100" cy="550" r="60" fill="#C4B5FD" opacity="0.12"/>
  <circle cx="950" cy="100" r="30" fill="#E0E7FF" opacity="0.1"/>
  <circle cx="200" cy="520" r="25" fill="#A5B4FC" opacity="0.1"/>
  <!-- Logo mark -->
  <g transform="translate(390,115)">
    <rect width="180" height="180" rx="38" fill="rgba(255,255,255,0.15)"/>
    <path d="M50 145V35h38c20.5 0 37.2 16.7 37.2 37.2 0 16.3-10.5 30.2-25.1 35.2L130 145h-27l-24-28.5h-4.3V145H50zm24.7-47.2h17.2c8.7 0 15.7-7 15.7-15.7 0-8.7-7-15.7-15.7-15.7H74.7v31.4z" fill="#fff"/>
    <circle cx="140" cy="42" r="7" fill="#A5B4FC" opacity="0.7"/>
    <circle cx="38" cy="148" r="5.5" fill="#C4B5FD" opacity="0.55"/>
  </g>
  <!-- App name -->
  <text x="600" y="370" font-family="system-ui, -apple-system, sans-serif" font-size="72" font-weight="700" fill="#fff" text-anchor="middle">Reli</text>
  <!-- Tagline -->
  <text x="600" y="430" font-family="system-ui, -apple-system, sans-serif" font-size="28" font-weight="400" fill="#C7D2FE" text-anchor="middle">Your personal AI that learns about you</text>
</svg>
